<?xml version="1.0" encoding="UTF-8" standalone="no"?>
<!-- Generator: Adobe Illustrator 18.0.0, SVG Export Plug-In . SVG Version: 6.00 Build 0)  -->

<svg
   xmlns:dc="http://purl.org/dc/elements/1.1/"
   xmlns:cc="http://creativecommons.org/ns#"
   xmlns:rdf="http://www.w3.org/1999/02/22-rdf-syntax-ns#"
   xmlns:svg="http://www.w3.org/2000/svg"
   xmlns="http://www.w3.org/2000/svg"
   xmlns:sodipodi="http://sodipodi.sourceforge.net/DTD/sodipodi-0.dtd"
   xmlns:inkscape="http://www.inkscape.org/namespaces/inkscape"
   version="1.1"
   id="Capa_1"
   x="0px"
   y="0px"
   viewBox="0 0 249.969 249.969"
   style="enable-background:new 0 0 249.969 249.969;"
   xml:space="preserve"
   sodipodi:docname="raccoon.svg"
   inkscape:version="0.92.4 (5da689c313, 2019-01-14)"><metadata
   id="metadata49"><rdf:RDF><cc:Work
       rdf:about=""><dc:format>image/svg+xml</dc:format><dc:type
         rdf:resource="http://purl.org/dc/dcmitype/StillImage" /><dc:title></dc:title></cc:Work></rdf:RDF></metadata><defs
   id="defs47" /><sodipodi:namedview
   pagecolor="#ffffff"
   bordercolor="#666666"
   borderopacity="1"
   objecttolerance="10"
   gridtolerance="10"
   guidetolerance="10"
   inkscape:pageopacity="0"
   inkscape:pageshadow="2"
   inkscape:window-width="1866"
   inkscape:window-height="1016"
   id="namedview45"
   showgrid="false"
   inkscape:pagecheckerboard="true"
   inkscape:zoom="1.8882342"
   inkscape:cx="194.89108"
   inkscape:cy="176.37591"
   inkscape:window-x="54"
   inkscape:window-y="27"
   inkscape:window-maximized="1"
   inkscape:current-layer="g12" />
<g
   id="g12">
	
	
	
	
	<g
   id="g892"><path
     id="path2"
     d="m 234.743,75.354 c 1.254,-2.168 1.254,-4.842 0,-7.01 -2.982,-5.154 -6.432,-9.951 -10.266,-14.363 6.368,-15.525 5.754,-34.111 -1.919,-47.694 -2.515,-4.45 -7.403,-6.844 -12.45,-6.089 -15.127,2.252 -28.374,10.995 -36.422,23.757 -6.337,-1.367 -12.855,-2.089 -19.466,-2.089 -6.582,0 -13.11,0.692 -19.489,2.052 -8.175,-12.954 -21.657,-21.723 -37.06,-23.814 -4.61,-0.62 -9.108,1.571 -11.453,5.597 -8.663,14.882 -9.425,32.728 -2.207,48.221 -3.875,4.462 -7.334,9.274 -10.312,14.422 -1.254,2.168 -1.254,4.842 0,7.01 4.314,7.457 9.6,14.171 15.633,20.036 -2.877,9.756 -4.608,19.827 -5.198,30.035 -4.818,-4.069 -10.061,-7.556 -15.619,-10.409 -0.462,-0.302 -0.952,-0.543 -1.461,-0.725 -13.521,-6.607 -28.788,-9.531 -44.176,-8.1 -2.961,0.276 -5.425,2.394 -6.143,5.279 -3.733,15 -3.136,30.538 1.366,44.901 0.103,0.525 0.266,1.04 0.492,1.537 3.354,10.013 8.623,19.418 15.672,27.621 7.153,8.323 16.029,14.961 25.983,19.667 0.183,0.093 0.367,0.178 0.556,0.255 11.159,5.175 23.643,7.94 36.559,7.94 2.811,0 5.642,-0.131 8.483,-0.396 1.296,-0.121 2.482,-0.597 3.475,-1.323 10.998,15.16 25.079,27.917 41.396,37.355 1.085,0.627 2.295,0.94 3.505,0.94 1.267,0 2.532,-0.344 3.651,-1.028 l 5.261,-3.217 c 0.049,-0.029 0.097,-0.06 0.145,-0.09 38.37,-24.764 61.277,-66.775 61.277,-112.383 0,-12.883 -1.835,-25.618 -5.445,-37.86 6.032,-5.863 11.318,-12.578 15.632,-20.035 z M 210.947,14.247 c 4.192,8.196 4.98,19.044 2.421,28.915 -7.671,-6.314 -16.31,-11.369 -25.562,-14.968 5.704,-7.25 13.9,-12.265 23.141,-13.947 z m -113.46,0 c 9.231,1.675 17.403,6.656 23.108,13.889 -9.329,3.61 -17.957,8.692 -25.742,15.164 -3.014,-9.597 -2.12,-19.993 2.634,-29.053 z m -9.519,57.601 c 4.18,-6.435 9.26,-12.211 15.141,-17.211 8.438,-7.172 18.067,-12.387 28.618,-15.517 0.444,-0.025 0.88,-0.087 1.296,-0.191 l -0.041,-0.165 c 6.882,-1.917 14.019,-2.899 21.238,-2.899 26.729,0 51.746,13.688 66.252,35.983 -14.506,22.295 -39.523,35.983 -66.252,35.983 -26.729,0 -51.746,-13.688 -66.252,-35.983 z m -38.216,109.601 35.34,-30.371 c 0.776,5.771 1.928,11.478 3.441,17.086 l -26.089,22.421 c -4.599,-2.541 -8.868,-5.591 -12.692,-9.136 z m -20.48,-61.603 c 7.571,-0.155 15.049,0.958 22.148,3.209 l -22.296,19.161 c -1.154,-7.348 -1.132,-14.904 0.148,-22.37 z m 3.95,37.307 32.34,-27.793 c 4.459,2.622 8.63,5.76 12.43,9.36 l -37.389,32.132 c -2.988,-4.3 -5.462,-8.896 -7.381,-13.699 z m 64.13,42.24 c -7.026,0 -13.88,-0.987 -20.374,-2.839 l 16.308,-14.016 c 1.716,4.335 3.669,8.576 5.836,12.71 l -0.365,4.132 c -0.47,0.008 -0.938,0.013 -1.405,0.013 z m 113.203,-66.142 c 0,40.804 -20.483,78.396 -54.799,100.574 l -1.565,0.957 c -6.713,-4.197 -12.966,-9.042 -18.69,-14.436 15.542,-9.444 27.943,-22.936 36.15,-39.491 4.136,-8.341 7.038,-17.177 8.629,-26.263 0.666,-3.809 -1.881,-7.436 -5.688,-8.103 -3.807,-0.665 -7.435,1.882 -8.103,5.688 -1.358,7.764 -3.842,15.32 -7.381,22.458 -7.462,15.053 -18.976,27.143 -33.463,35.255 -4.834,-5.792 -9.132,-12.049 -12.82,-18.698 -9.772,-17.623 -14.938,-37.659 -14.938,-57.942 0,-9.512 1.131,-18.926 3.331,-28.077 15.348,10.645 33.797,16.658 53.004,16.658 19.207,0 37.656,-6.013 53.004,-16.658 2.198,9.152 3.329,18.566 3.329,28.078 z"
     inkscape:connector-curvature="0" /><path
     style="stroke:none"
     id="path6"
     d="m 133.827,85.607 c 8.092,0 15.359,-3.501 20.393,-9.061 5.035,5.56 12.302,9.061 20.393,9.061 10.185,0 19.077,-5.534 23.835,-13.758 -4.758,-8.224 -13.65,-13.758 -23.835,-13.758 -8.092,0 -15.359,3.501 -20.393,9.061 -5.035,-5.56 -12.302,-9.061 -20.393,-9.061 -10.185,0 -19.077,5.534 -23.835,13.758 4.758,8.224 13.65,13.758 23.835,13.758 z m 35.838,-18.712 c 1.301,-1.301 3.11,-2.051 4.95,-2.051 1.84,0 3.641,0.75 4.95,2.051 1.3,1.31 2.05,3.109 2.05,4.949 0,1.851 -0.75,3.65 -2.05,4.95 -1.31,1.311 -3.11,2.05 -4.95,2.05 -1.84,0 -3.649,-0.739 -4.95,-2.05 -1.3,-1.3 -2.05,-3.1 -2.05,-4.95 0,-1.84 0.75,-3.639 2.05,-4.949 z m -40.79,0 c 1.301,-1.301 3.11,-2.051 4.95,-2.051 1.84,0 3.65,0.75 4.95,2.051 1.3,1.31 2.05,3.109 2.05,4.949 0,1.851 -0.75,3.65 -2.05,4.95 -1.31,1.311 -3.11,2.05 -4.95,2.05 -1.84,0 -3.64,-0.739 -4.95,-2.05 -1.3,-1.3 -2.05,-3.1 -2.05,-4.95 0,-1.84 0.75,-3.639 2.05,-4.949 z"
     inkscape:connector-curvature="0" /><circle
     id="circle10"
     r="9.1890001"
     cy="96.658997"
     cx="154.22099" /></g>
</g>
<g
   id="g14">
</g>
<g
   id="g16">
</g>
<g
   id="g18">
</g>
<g
   id="g20">
</g>
<g
   id="g22">
</g>
<g
   id="g24">
</g>
<g
   id="g26">
</g>
<g
   id="g28">
</g>
<g
   id="g30">
</g>
<g
   id="g32">
</g>
<g
   id="g34">
</g>
<g
   id="g36">
</g>
<g
   id="g38">
</g>
<g
   id="g40">
</g>
<g
   id="g42">
</g>
</svg>